<?xml version="1.0" encoding="UTF-8" standalone="no"?>
<!-- Created with Inkscape (http://www.inkscape.org/) -->

<svg
   version="1.1"
   id="svg6851"
   width="666.66669"
   height="181.33333"
   viewBox="0 0 666.66669 181.33333"
   sodipodi:docname="nepflix-logo-transparent.svg"
   inkscape:version="1.1.2 (b8e25be833, 2022-02-05)"
   xmlns:inkscape="http://www.inkscape.org/namespaces/inkscape"
   xmlns:sodipodi="http://sodipodi.sourceforge.net/DTD/sodipodi-0.dtd"
   xmlns="http://www.w3.org/2000/svg"
   xmlns:svg="http://www.w3.org/2000/svg">
  <defs
     id="defs6855" />
  <sodipodi:namedview
     id="namedview6853"
     pagecolor="#ffffff"
     bordercolor="#666666"
     borderopacity="1.0"
     inkscape:pageshadow="2"
     inkscape:pageopacity="0.0"
     inkscape:pagecheckerboard="0"
     showgrid="false"
     inkscape:zoom="2.1959999"
     inkscape:cx="333.33334"
     inkscape:cy="90.619311"
     inkscape:window-width="2400"
     inkscape:window-height="1494"
     inkscape:window-x="-11"
     inkscape:window-y="-11"
     inkscape:window-maximized="1"
     inkscape:current-layer="g6857" />
  <g
     inkscape:groupmode="layer"
     inkscape:label="Image"
     id="g6857">
    <path
       style="fill:#b9090b;fill-opacity:1;stroke-width:1.06667"
       d="M 0.45173341,91.262696 V 1.3267456 H 13.121125 c 8.876348,0 12.977046,0.39919 13.697,1.33334 0.565184,0.73333 6.686625,17.1733304 13.603203,36.5333304 20.821068,58.279669 22.112718,61.640444 23.09482,60.091098 0.496607,-0.783438 0.910271,-23.144432 0.919254,-49.691099 L 64.451732,1.3267456 H 78.324861 92.19799 L 91.924862,85.283081 91.651733,169.2394 87.9184,170.04234 c -2.053334,0.44161 -8.81965,1.12895 -15.036258,1.52742 -10.505671,0.67339 -11.345224,0.58221 -11.902614,-1.2926 -0.72268,-2.43078 -22.909024,-66.42462 -27.614813,-79.651606 -1.833051,-5.152323 -3.628357,-9.072544 -3.989569,-8.711605 -0.361211,0.360941 -0.896748,21.697091 -1.190082,47.413671 -0.293333,25.71659 -0.773333,46.98055 -1.066666,47.25328 -0.293334,0.27272 -6.413334,1.42328 -13.600002,2.5568 L 0.45172941,181.19864 Z M 648.07793,178.02882 635.97076,175.72674 626.6986,152.26008 c -9.99824,-25.30425 -11.23137,-27.99213 -12.15585,-26.49629 -0.33233,0.53772 -3.94168,8.63936 -8.02077,18.00365 -4.07909,9.36429 -8.55361,19.35616 -9.94337,22.20416 l -2.52685,5.17818 -7.46667,-0.68978 c -12.09957,-1.11778 -17.24874,-1.85694 -18.5535,-2.66333 -1.59424,-0.98529 0.68638,-7.00403 16.22291,-42.8137 15.9808,-36.833622 15.66393,-36.044748 15.66393,-38.996403 0,-2.780334 -7.70722,-24.226057 -21.72998,-60.464679 -6.17514,-15.9582924 -8.5986,-23.4274924 -7.7117,-23.7678324 0.71134,-0.27296 7.24434,-0.36078 14.51778,-0.19514 l 13.22443,0.30117 8.58307,21.7807734 c 4.72069,11.979427 9.11707,21.957428 9.76974,22.173337 1.23467,0.408435 5.23805,-7.972766 14.62637,-30.62078 l 5.5271,-13.3333304 14.74486,-0.2973 14.74486,-0.2973 -0.77048,2.43063 c -0.42378,1.33685 -8.3217,20.5462164 -17.55096,42.6874834 l -16.78045,40.256849 10.6072,28.009812 c 11.42756,30.17608 23.26483,63.16823 23.26483,64.84237 0,1.44132 -2.98987,1.18247 -16.90717,-1.46381 z M 119.91841,84.118735 V 1.3267456 h 38.43187 38.43187 l -0.29853,13.6000004 -0.29854,13.600003 -24.82399,0.286385 -24.82398,0.286384 0.29065,19.446949 0.29065,19.446948 3.73334,-0.07072 c 2.05333,-0.03889 10.33333,-0.405762 18.4,-0.815261 l 14.66666,-0.74454 v 13.881927 13.881927 l -10.93333,0.0076 c -6.01333,0.0042 -14.10013,0.306745 -17.97066,0.672387 l -7.03731,0.664805 -0.72077,20.81397 c -0.39642,11.44769 -0.52826,21.00647 -0.29299,21.24176 0.23529,0.23527 10.63915,-0.31359 23.1197,-1.21971 12.48056,-0.9061 23.64983,-1.64746 24.82059,-1.64746 2.04237,0 2.10461,0.52226 1.5352,12.88096 -0.3264,7.08453 -0.75702,13.03605 -0.95695,13.2256 -0.19991,0.18955 -13.80348,1.36037 -30.23014,2.60182 -16.42667,1.24145 -33.34667,2.54633 -37.60001,2.89972 l -7.73333,0.64254 V 84.118726 Z m 410.66668,81.790055 c -4.98666,-0.17437 -10.14667,-0.56581 -11.46667,-0.86987 l -2.4,-0.55282 V 82.906426 1.3267456 h 13.33334 13.33333 V 83.993415 c 0,78.101755 -0.10304,82.654675 -1.86666,82.449545 -1.02667,-0.11942 -5.94667,-0.35979 -10.93334,-0.53417 z m -53.86667,-4.20741 c -2.93333,-0.16912 -14.93333,-0.81253 -26.66666,-1.4298 -11.73334,-0.61728 -24.09334,-1.39951 -27.46667,-1.73831 l -6.13334,-0.61599 V 79.622015 1.3267456 h 13.85853 13.85853 l 0.27481,65.8666694 0.2748,65.866665 22.45858,1.14178 c 12.35223,0.62798 23.03223,1.4963 23.73334,1.92961 0.87341,0.5398 1.27475,4.79804 1.27475,13.5249 v 12.73704 l -5.06667,-0.19227 c -2.78666,-0.1057 -7.46666,-0.33063 -10.4,-0.49976 z M 214.85175,79.130717 V 0.13468562 l 29.06667,0.32937 c 27.98668,0.31712 29.2759,0.42392 34.69806,2.87421998 9.46811,4.27869 17.69275,15.2537004 21.14347,28.2139694 1.94283,7.296927 1.88991,24.331165 -0.0993,31.968319 -3.30589,12.692161 -10.8025,23.306461 -19.4784,27.579078 -4.41977,2.176589 -7.09887,2.561607 -21.06383,3.027106 l -16,0.533333 -0.28254,31.733329 -0.28254,31.73333 h -13.8508 -13.85079 z M 265.8689,63.8569 c 9.72924,-5.128731 10.32536,-25.145031 0.95355,-32.017802 -2.38785,-1.751124 -5.02636,-2.255522 -13.6,-2.599885 L 242.58508,28.81196 v 18.917959 18.917959 l 9.86667,-0.459676 c 6.59196,-0.30711 11.04506,-1.08086 13.41715,-2.331302 z m 54.58285,15.336515 V 1.3267456 h 39.46667 39.46667 V 15.193416 29.060082 h -26.13334 -26.13333 v 18.133333 18.133333 h 19.2 19.2 v 13.866667 13.866666 h -19.2 -19.2 v 31.999999 32 h -13.33334 -13.33333 z"
       id="path6923" />
  </g>
</svg>
